<svg width="27" height="25" viewBox="0 0 27 25" fill="none" xmlns="http://www.w3.org/2000/svg">
<g clip-path="url(#clip0_671_18628)">
<path d="M1.03119 24.7937H25.7789C26.3064 24.7937 26.7193 24.3808 26.7193 23.8533V2.86708C26.7193 2.33956 26.3064 1.92671 25.7789 1.92671H21.1229V1.12396C21.1229 0.596438 20.7101 0.183594 20.1826 0.183594C19.655 0.183594 19.2422 0.596438 19.2422 1.12396V1.92671H7.72844V1.12396C7.72844 0.596438 7.31559 0.183594 6.78807 0.183594C6.26055 0.183594 5.8477 0.596438 5.8477 1.12396V1.92671H1.03119C0.503664 1.92671 0.0908203 2.33956 0.0908203 2.86708V23.8763C0.0908203 24.3808 0.5266 24.7937 1.03119 24.7937ZM1.97155 3.80745H5.8477V4.31203C5.8477 4.83956 6.26055 5.2524 6.78807 5.2524C7.31559 5.2524 7.72844 4.83956 7.72844 4.31203V3.80745H19.2422V4.31203C19.2422 4.83956 19.655 5.2524 20.1826 5.2524C20.7101 5.2524 21.1229 4.83956 21.1229 4.31203V3.80745H24.8615V6.23864H1.97155V3.80745ZM1.97155 8.11937H24.8385V22.9359H1.97155V8.11937Z" fill="#E72C12"/>
<path d="M20.1824 12.4313H6.65033C6.12281 12.4313 5.70996 12.8441 5.70996 13.3716C5.70996 13.8992 6.12281 14.312 6.65033 14.312H20.1824C20.71 14.312 21.1228 13.8992 21.1228 13.3716C21.1228 12.8441 20.71 12.4313 20.1824 12.4313Z" fill="#E72C12"/>
<path d="M13.4164 16.9725H6.65033C6.12281 16.9725 5.70996 17.3854 5.70996 17.9129C5.70996 18.4404 6.12281 18.8533 6.65033 18.8533H13.4164C13.9439 18.8533 14.3567 18.4404 14.3567 17.9129C14.3567 17.3854 13.9439 16.9725 13.4164 16.9725Z" fill="#E72C12"/>
</g>
<defs>
<clipPath id="clip0_671_18628">
<rect width="26.8349" height="25" fill="white"/>
</clipPath>
</defs>
</svg>
