<svg width="49" height="47" viewBox="0 0 49 47" fill="none" xmlns="http://www.w3.org/2000/svg">
<path d="M44.7683 3.75298L44.7683 3.75294C44.2513 3.23559 43.5741 2.97713 42.8963 2.97713C42.2186 2.97713 41.5413 3.23559 41.0243 3.75294L41.0175 3.7598L41.0099 3.7658L23.1227 17.8814L23.116 17.8867L23.1088 17.8912C22.7722 18.1045 22.4511 18.3486 22.1608 18.6388L22.1608 18.6389C20.0279 20.7704 20.0279 24.2271 22.1608 26.3601C23.2274 27.4263 24.6243 27.9597 26.0217 27.9597C27.419 27.9597 28.8159 27.4263 29.8825 26.3601C29.8825 26.3601 29.8825 26.3601 29.8825 26.3601M44.7683 3.75298L30.7692 25.5002C30.5508 25.8448 30.2995 26.1759 29.9989 26.4765L29.8825 26.3601M44.7683 3.75298C45.8027 4.78731 45.8027 6.46271 44.7686 7.49741L44.7618 7.50423L44.7559 7.5118L30.6399 25.3982L30.6347 25.4049L30.6301 25.4121C30.4168 25.7487 30.1728 26.0698 29.8825 26.3601M44.7683 3.75298L29.8825 26.3601M28.1245 24.6044C28.2675 24.4629 28.4 24.2903 28.5318 24.0833L28.532 24.083C28.5808 24.0061 28.6337 23.9325 28.6906 23.8583C28.6908 23.858 28.691 23.8577 28.6913 23.8574L42.8056 5.97301L28.1241 24.6048C28.1243 24.6046 28.1244 24.6045 28.1245 24.6044ZM28.1245 24.6044C27.5635 25.1667 26.8157 25.4764 26.0213 25.4764C25.2267 25.4764 24.4785 25.1666 23.9164 24.6041C23.3544 24.0417 23.0442 23.2929 23.0442 22.4993C23.0442 21.7043 23.354 20.9565 23.9165 20.3944M28.1245 24.6044L23.9165 20.3944M23.9165 20.3944C24.0577 20.2532 24.2301 20.1208 24.4373 19.9888L24.4378 19.9885C24.5144 19.94 24.5883 19.8871 24.6623 19.8304C24.6626 19.8301 24.6629 19.8299 24.6632 19.8297L42.5483 5.71571C42.5483 5.7157 42.5483 5.71569 42.5483 5.71568C42.6289 5.65182 42.7036 5.58378 42.7758 5.50991L42.8242 5.46037H42.8935H42.8963H43.295L43.0125 5.74167C42.9386 5.81523 42.8702 5.89156 42.8058 5.97273L23.9165 20.3944Z" fill="black" stroke="white" stroke-width="0.329268"/>
<path d="M11.9707 30.8089L11.8202 30.7422C11.8179 30.7474 11.8144 30.7554 11.8101 30.7651C11.7908 30.809 11.7561 30.8876 11.7479 30.904L11.7447 30.9104L11.7421 30.917C11.5119 31.4981 11.5053 31.9341 11.4959 32.545L11.4957 32.5599C11.4768 33.7994 11.3025 34.8566 10.7837 35.9068C10.2638 36.959 9.3918 38.0169 7.95675 39.2458L7.62644 39.5286L8.06125 39.5354L8.0613 39.5354L8.06145 39.5354L8.06204 39.5354L8.06434 39.5355L8.07315 39.5356L8.10557 39.5361L8.21307 39.5375C8.29711 39.5386 8.39895 39.5397 8.46742 39.5397C15.7464 39.5397 18.9585 36.1254 19.112 35.9592L19.1121 35.9592L19.1156 35.9552C19.1381 35.9291 19.1889 35.8744 19.2133 35.85L19.2139 35.8494C21.0074 34.0384 21.0075 31.0936 19.2149 29.2843L19.2149 29.2842C18.3695 28.4319 17.2425 27.9611 16.0436 27.9611C15.3507 27.9611 14.6551 28.1215 14.03 28.4287C13.8423 28.5144 13.7421 28.5707 13.6436 28.6314C13.6331 28.6375 13.6227 28.6435 13.6125 28.6494C13.5374 28.693 13.4699 28.7322 13.4053 28.7772C13.161 28.9463 12.9622 29.1093 12.7839 29.2876L12.7834 29.2881C12.6013 29.4717 12.4328 29.6835 12.2516 29.9517L12.2515 29.9516L12.248 29.9573L12.1809 30.0659L12.1807 30.0661C12.0213 30.3248 11.9114 30.5313 11.8196 30.7435L11.9707 30.8089ZM11.9707 30.8089C12.0586 30.6057 12.1645 30.4063 12.3209 30.1525M11.9707 30.8089C11.969 30.8129 11.9661 30.8194 11.9625 30.8276C11.9439 30.8698 11.9055 30.957 11.8952 30.9776C11.6761 31.5306 11.6698 31.9404 11.6604 32.5566L11.6603 32.5625C11.6228 35.0164 10.9824 36.816 8.25101 39.2087L12.3209 30.1525M12.3209 30.1525L12.388 30.0439C12.5652 29.7816 12.7273 29.5784 12.9003 29.404L12.3209 30.1525ZM12.9294 26.2024L12.9294 26.2025L12.9345 26.2C13.9143 25.7194 14.9797 25.4779 16.0439 25.4779C17.8311 25.4779 19.6147 26.1591 20.9793 27.5374L20.9793 27.5374C23.731 30.3142 23.7297 34.818 20.9779 37.5963L20.9776 37.596L20.9703 37.6045L20.9703 37.6045L20.9702 37.6046L20.97 37.6049L20.9683 37.6067L20.9608 37.6152C20.9539 37.6229 20.9432 37.6348 20.9287 37.6504C20.8996 37.6817 20.8554 37.7282 20.7955 37.7879C20.6759 37.9072 20.4943 38.0788 20.2486 38.2854C19.7571 38.6986 19.0096 39.2516 17.9898 39.8051C15.951 40.9118 12.821 42.0229 8.46742 42.0229C6.3215 42.0229 3.87677 41.7528 1.11908 41.0784C3.71595 39.4218 5.45421 38.1466 6.6185 37.1076C7.83063 36.026 8.4302 35.1922 8.72498 34.4402C8.99408 33.7537 9.00309 33.1471 9.01234 32.5251C9.01322 32.4662 9.01409 32.4072 9.01519 32.348C9.02791 31.6631 9.06851 30.9235 9.45363 29.9542L9.45424 29.9526C9.46494 29.9249 9.47773 29.8971 9.49309 29.8642L9.49517 29.8597C9.509 29.83 9.52505 29.7956 9.53929 29.7597C9.67587 29.4434 9.84043 29.1314 10.0299 28.8237C10.0437 28.8013 10.0571 28.7794 10.0704 28.7577C10.1117 28.6905 10.1513 28.6259 10.1944 28.5607C10.4304 28.2111 10.6946 27.8684 11.0202 27.5404L11.0203 27.5403C11.3407 27.2171 11.6741 26.9561 12.013 26.7209C12.1232 26.646 12.2366 26.5787 12.3552 26.5085L12.3552 26.5085L12.3566 26.5077C12.5477 26.392 12.7382 26.2882 12.9294 26.2024Z" fill="#E72C12" stroke="white" stroke-width="0.329268"/>
<path d="M8.39062 21.1097V5.48779H22.6589" stroke="black" stroke-width="2.19512"/>
<path d="M43.5117 18.5L43.5117 41.1585L29.2434 41.1585" stroke="black" stroke-width="2.19512"/>
<circle cx="9.4878" cy="5.4878" r="4.39024" fill="white" stroke="black" stroke-width="2.19512"/>
<circle cx="43.5112" cy="40.6098" r="4.39024" fill="white" stroke="black" stroke-width="2.19512"/>
</svg>
