<svg width="47" height="47" viewBox="0 0 47 47" fill="none" xmlns="http://www.w3.org/2000/svg">
<g clip-path="url(#clip0_370_1249)">
<path d="M45.5312 1.46875H1.46875V36.7188H45.5312V1.46875Z" stroke="black" stroke-width="1.88" stroke-linejoin="round"/>
<path d="M29.375 36.7188H17.625V45.5312H29.375V36.7188Z" stroke="black" stroke-width="1.88" stroke-linejoin="round"/>
<path d="M11.75 45.5312H35.25" stroke="black" stroke-width="1.88" stroke-linejoin="round"/>
<path d="M1.46875 27.9062H45.5312" stroke="black" stroke-width="1.88" stroke-linejoin="round"/>
<path d="M19.0938 22.0312C20.7161 22.0312 22.0312 20.7161 22.0312 19.0938C22.0312 17.4714 20.7161 16.1562 19.0938 16.1562C17.4714 16.1562 16.1562 17.4714 16.1562 19.0938C16.1562 20.7161 17.4714 22.0312 19.0938 22.0312Z" stroke="black" stroke-width="1.88" stroke-linejoin="round"/>
<path d="M27.9062 13.2188C29.5286 13.2188 30.8438 11.9036 30.8438 10.2812C30.8438 8.65891 29.5286 7.34375 27.9062 7.34375C26.2839 7.34375 24.9688 8.65891 24.9688 10.2812C24.9688 11.9036 26.2839 13.2188 27.9062 13.2188Z" stroke="black" stroke-width="1.88" stroke-linejoin="round"/>
<path d="M11.75 14.6875C13.3723 14.6875 14.6875 13.3723 14.6875 11.75C14.6875 10.1277 13.3723 8.8125 11.75 8.8125C10.1277 8.8125 8.8125 10.1277 8.8125 11.75C8.8125 13.3723 10.1277 14.6875 11.75 14.6875Z" stroke="black" stroke-width="1.88" stroke-linejoin="round"/>
<path d="M13.2188 13.2188L17.625 17.625" stroke="black" stroke-width="1.88" stroke-linejoin="round"/>
<path d="M20.5625 17.625L26.4375 11.75" stroke="black" stroke-width="1.88" stroke-linejoin="round"/>
<path d="M29.375 11.75L33.7812 16.1562" stroke="black" stroke-width="1.88" stroke-linejoin="round"/>
<path d="M36 22C38.2091 22 40 20.2091 40 18C40 15.7909 38.2091 14 36 14C33.7909 14 32 15.7909 32 18C32 20.2091 33.7909 22 36 22Z" fill="#E72C12"/>
</g>
<defs>
<clipPath id="clip0_370_1249">
<rect width="47" height="47" fill="white"/>
</clipPath>
</defs>
</svg>
