<svg width="185" height="71" viewBox="0 0 185 71" fill="none" xmlns="http://www.w3.org/2000/svg">
<path d="M179.568 27.5655V0.206055H184.817V27.5655H179.568Z" fill="white"/>
<path d="M163.067 27.8704C159.292 27.8704 156.613 25.5335 156.613 21.9383V21.9024C156.613 18.3431 159.364 16.2579 164.289 15.9703L169.071 15.6827V14.0468C169.071 12.3391 167.902 11.3684 165.745 11.3684C163.858 11.3684 162.653 12.0335 162.24 13.202L162.204 13.2739H157.35L157.368 13.1121C157.782 9.64273 161.053 7.3418 166.033 7.3418C171.282 7.3418 174.248 9.82249 174.248 14.0468V27.5648H169.071V24.9403H168.747C167.74 26.7739 165.655 27.8704 163.067 27.8704ZM161.736 21.6147C161.736 23.1247 163.013 24.0415 164.828 24.0415C167.255 24.0415 169.071 22.4416 169.071 20.3564V18.9004L165.08 19.152C162.833 19.2958 161.736 20.1407 161.736 21.5788V21.6147Z" fill="white"/>
<path d="M138.672 34.5407C138.061 34.5407 137.396 34.5227 136.784 34.4868V30.532C137.144 30.568 137.665 30.586 138.151 30.586C140.02 30.586 141.099 29.8669 141.476 28.321L141.656 27.566L134.699 7.77441H140.47L144.622 22.7664H144.981L149.134 7.77441H154.671L147.93 27.548C146.168 32.779 143.561 34.5407 138.672 34.5407Z" fill="white"/>
<path d="M123.107 27.9783C117.013 27.9783 113.346 24.1134 113.346 17.678V17.642C113.346 11.2606 117.067 7.3418 123.107 7.3418C129.147 7.3418 132.868 11.2426 132.868 17.642V17.678C132.868 24.1314 129.201 27.9783 123.107 27.9783ZM123.107 23.8617C125.893 23.8617 127.493 21.5788 127.493 17.678V17.642C127.493 13.7772 125.875 11.4583 123.107 11.4583C120.32 11.4583 118.721 13.7772 118.721 17.642V17.678C118.721 21.5788 120.302 23.8617 123.107 23.8617Z" fill="white"/>
<path d="M89.9219 27.5654V1.62598H100.725C106.622 1.62598 110.001 4.77178 110.001 9.87696V9.91292C110.001 13.2385 108.275 16.0967 105.309 17.2651L110.774 27.5654H104.626L99.7907 18.074H95.3506V27.5654H89.9219ZM95.3506 14.1193H100.132C102.847 14.1193 104.446 12.5734 104.446 10.0208V9.98482C104.446 7.48616 102.775 5.86831 100.06 5.86831H95.3506V14.1193Z" fill="white"/>
<path d="M164.713 63.8457C161.639 63.8457 160.129 62.3896 160.129 59.118V46.8044H157.379V44.8091H160.129V39.7578H162.574V44.8091H166.277V46.8044H162.574V59.082C162.574 61.1493 163.455 61.8503 165.198 61.8503C165.63 61.8503 166.007 61.7964 166.277 61.7604V63.7019C165.9 63.7738 165.288 63.8457 164.713 63.8457Z" fill="white"/>
<path d="M149.54 63.5036V46.8039H146.934V44.8085H149.54V42.1661C149.54 38.7866 151.176 37.2227 154.304 37.2227C154.969 37.2227 155.634 37.2946 156.047 37.3665V39.3258C155.652 39.2539 155.185 39.218 154.699 39.218C152.884 39.218 151.895 40.1348 151.895 42.202V44.8085H155.922V46.8039H151.913V63.5036H149.54Z" fill="white"/>
<path d="M136.886 63.8449C131.781 63.827 128.365 60.0879 128.365 54.1559V54.1199C128.365 48.1878 131.799 44.4668 136.886 44.4668C141.955 44.4668 145.406 48.1699 145.406 54.1199V54.1559C145.406 60.1059 141.973 63.8449 136.886 63.8449ZM136.904 61.7238C140.553 61.7238 142.98 58.8836 142.98 54.1559V54.1199C142.98 49.3922 140.535 46.588 136.886 46.588C133.237 46.588 130.81 49.4102 130.81 54.1199V54.1559C130.81 58.9015 133.219 61.7058 136.904 61.7238Z" fill="white"/>
<path d="M119.033 63.8449C114.791 63.8449 112.077 61.58 111.717 58.2724L111.699 58.1106H114.072L114.108 58.2724C114.486 60.4295 116.229 61.8316 119.051 61.8316C121.874 61.8316 123.671 60.5373 123.671 58.578V58.56C123.671 56.9421 122.772 56.0613 120.274 55.4681L117.452 54.785C113.928 53.9402 112.238 52.3942 112.238 49.8057V49.7877C112.238 46.6778 114.989 44.4668 118.89 44.4668C122.88 44.4668 125.433 46.7857 125.738 50.0034L125.756 50.2011H123.474L123.456 50.0753C123.15 47.9002 121.496 46.4801 118.89 46.4801C116.355 46.4801 114.665 47.7924 114.665 49.6978V49.7158C114.665 51.2078 115.672 52.1605 118.135 52.7537L120.957 53.4188C124.678 54.3176 126.098 55.7737 126.098 58.3982V58.4162C126.098 61.5979 123.132 63.8449 119.033 63.8449Z" fill="white"/>
<path d="M108.304 51.747V54.2996L90.7949 61.3102V59.1711L106.326 53.0412L90.7949 46.9294V44.7363L108.304 51.747Z" fill="white"/>
<path d="M9.51172 0H74.5063V64.9946H27.7782C28.3835 63.2749 28.7128 61.4251 28.7128 59.4984C28.7128 55.8216 27.5136 52.4248 25.485 49.6779C28.2396 47.1394 31.978 43.8105 35.7013 40.495L35.7781 40.4265C41.3163 35.4949 46.8067 30.6045 49.1365 28.2609L51.0193 26.3669V41.9072H54.9592V19.284H32.3146V23.2964H48.1611L46.2736 25.1782C43.8036 27.6407 38.201 32.614 32.6806 37.5117L32.5105 37.6626C28.8292 40.9286 25.1993 44.149 22.5264 46.5953C19.6905 44.3151 16.0871 42.9507 12.1651 42.9507C11.2619 42.9507 10.3756 43.023 9.51172 43.1623V0Z" fill="white"/>
<path d="M11.8333 47.333C5.29797 47.333 0 52.631 0 59.1664C0 65.7017 5.29797 70.9997 11.8333 70.9997C18.3687 70.9997 23.6667 65.7017 23.6667 59.1664C23.6667 52.631 18.3687 47.333 11.8333 47.333Z" fill="#E72C12"/>
</svg>
