<svg width="60" height="60" viewBox="0 0 60 60" fill="none" xmlns="http://www.w3.org/2000/svg">
<mask id="path-1-outside-1_370_1220" maskUnits="userSpaceOnUse" x="7" y="6" width="47" height="34" fill="black">
<rect fill="white" x="7" y="6" width="47" height="34"/>
<path d="M52.5506 10.498C52.1481 10.0384 51.5919 9.74138 50.9861 9.66261C50.5562 9.60723 50.0513 9.54925 49.4864 9.49511L49.4874 9.13386C49.4886 8.72766 49.3455 8.33425 49.0835 8.02382C48.8215 7.7134 48.4577 7.50615 48.0571 7.43908C46.5528 7.18461 43.5575 6.80471 40.3965 7.11872C36.3789 7.51793 33.4072 8.89119 31.5641 11.2004C31.4515 11.3438 31.3078 11.4597 31.1438 11.5395C30.9799 11.6192 30.7999 11.6607 30.6176 11.6607C30.4353 11.6607 30.2554 11.6192 30.0914 11.5395C29.9274 11.4597 29.7837 11.3438 29.6712 11.2004C27.8281 8.89122 24.8564 7.51795 20.8388 7.11874C17.6777 6.805 14.6825 7.18463 13.1782 7.4391C12.7779 7.50604 12.4143 7.713 12.1523 8.02307C11.8904 8.33314 11.7471 8.72617 11.748 9.13208L11.747 9.4954C11.1843 9.54852 10.6812 9.60687 10.2525 9.66261C9.64707 9.74179 9.09095 10.038 8.68743 10.4962C8.28391 10.9545 8.06041 11.5436 8.05844 12.1542L8 32.5515C8.00007 32.8951 8.0706 33.2351 8.20723 33.5504C8.34386 33.8656 8.54369 34.1495 8.79438 34.3845C9.04506 34.6195 9.34128 34.8006 9.66472 34.9167C9.98815 35.0327 10.3319 35.0811 10.6748 35.059C19.8097 34.464 24.9163 36.7072 27.5912 38.6928C28.4478 39.335 29.4896 39.6822 30.5602 39.6822C31.6308 39.6822 32.6726 39.335 33.5292 38.6928C36.2054 36.7072 41.312 34.464 50.4455 35.059C50.7884 35.0814 51.1322 35.0332 51.4557 34.9174C51.7792 34.8015 52.0754 34.6206 52.3262 34.3857C52.5769 34.1507 52.7767 33.8669 52.9133 33.5516C53.05 33.2364 53.1204 32.8964 53.1204 32.5528L53.1788 12.1568C53.179 11.5457 52.9555 10.9557 52.5506 10.498ZM13.0761 9.13395C13.0756 9.04179 13.1079 8.95245 13.1672 8.88188C13.2264 8.8113 13.3088 8.76408 13.3997 8.74862C16.0071 8.30768 24.8114 7.24085 28.6333 12.029C28.969 12.452 29.4309 12.7569 29.9518 12.8993L29.898 29.5515C29.8977 29.6388 29.9146 29.7252 29.9477 29.8059C29.9808 29.8865 30.0295 29.9599 30.0909 30.0218C30.1524 30.0836 30.2255 30.1328 30.3059 30.1664C30.3864 30.2001 30.4727 30.2175 30.5599 30.2178H30.5621C30.7378 30.2178 30.9064 30.1482 31.0309 30.0241C31.1554 29.9 31.2256 29.7317 31.2262 29.556L31.28 12.9003C31.8024 12.7583 32.2657 12.4531 32.6022 12.029C36.4241 7.2408 45.2285 8.30783 47.8357 8.74869C47.9263 8.76399 48.0086 8.81092 48.0678 8.88114C48.1271 8.95136 48.1595 9.04032 48.1594 9.13221L48.1037 29.7856C48.1035 29.84 48.092 29.8939 48.0699 29.9436C48.0477 29.9934 48.0154 30.0379 47.9751 30.0745C47.9348 30.1111 47.8873 30.1389 47.8356 30.1561C47.7839 30.1733 47.7292 30.1795 47.675 30.1744C38.2937 29.3379 33.4182 32.2331 31.347 34.034C31.3087 34.0669 31.2683 34.0974 31.2262 34.1253V21.8638C31.2262 21.6876 31.1562 21.5187 31.0317 21.3942C30.9071 21.2697 30.7382 21.1997 30.5621 21.1997C30.386 21.1997 30.2171 21.2697 30.0926 21.3942C29.968 21.5187 29.8981 21.6876 29.8981 21.8638V34.1251C29.8559 34.0972 29.8156 34.0667 29.7772 34.0338C27.958 32.4521 23.9766 30.0259 16.6773 30.0259C15.6664 30.0259 14.5905 30.0725 13.4493 30.1743C13.3952 30.1794 13.3407 30.1732 13.2891 30.1561C13.2376 30.139 13.1901 30.1114 13.1498 30.075C13.1095 30.0386 13.0772 29.9943 13.0549 29.9447C13.0327 29.8952 13.021 29.8416 13.0205 29.7873L13.0761 9.13395ZM51.7923 32.5516C51.7923 32.7136 51.7592 32.8738 51.6948 33.0224C51.6305 33.1711 51.5364 33.3049 51.4182 33.4157C51.3001 33.5265 51.1605 33.6119 51.008 33.6666C50.8556 33.7213 50.6935 33.7441 50.5319 33.7336C40.9959 33.1134 35.5918 35.508 32.7377 37.6277C32.1093 38.0984 31.3453 38.3528 30.5602 38.3528C29.7751 38.3528 29.0111 38.0984 28.3827 37.6277C25.842 35.7404 21.2786 33.634 13.5755 33.634C12.6285 33.634 11.6329 33.6672 10.5885 33.7336C10.4271 33.7438 10.2652 33.7208 10.113 33.6661C9.96077 33.6114 9.82133 33.5261 9.70328 33.4155C9.58522 33.3049 9.49103 33.1714 9.42652 33.023C9.362 32.8747 9.32852 32.7147 9.32812 32.5529L9.38656 12.1569C9.38756 11.8686 9.4931 11.5904 9.6836 11.3741C9.87411 11.1577 10.1366 11.0177 10.4225 10.9802C10.8051 10.9312 11.2499 10.8783 11.7434 10.8292L11.6923 29.7856C11.6925 30.0244 11.7425 30.2605 11.8389 30.479C11.9354 30.6974 12.0763 30.8934 12.2527 31.0544C12.429 31.2155 12.637 31.338 12.8633 31.4143C13.0896 31.4905 13.3293 31.5188 13.5672 31.4974C22.4592 30.7041 26.9937 33.3741 28.9057 35.0362C29.3661 35.4334 29.9539 35.6519 30.562 35.6519C31.17 35.6519 31.7579 35.4334 32.2183 35.0362C34.1302 33.374 38.6653 30.7033 47.5569 31.4974C47.7946 31.5188 48.0341 31.4905 48.2603 31.4144C48.4865 31.3383 48.6944 31.2159 48.8707 31.0551C49.047 30.8942 49.188 30.6985 49.2846 30.4802C49.3812 30.262 49.4313 30.0261 49.4318 29.7874L49.4829 10.8284C49.9815 10.8773 50.4304 10.9301 50.8161 10.9803C51.1014 11.0177 51.3635 11.1573 51.5537 11.3732C51.744 11.5891 51.8495 11.8666 51.8507 12.1544L51.7923 32.5516Z"/>
</mask>
<path d="M52.5506 10.498C52.1481 10.0384 51.5919 9.74138 50.9861 9.66261C50.5562 9.60723 50.0513 9.54925 49.4864 9.49511L49.4874 9.13386C49.4886 8.72766 49.3455 8.33425 49.0835 8.02382C48.8215 7.7134 48.4577 7.50615 48.0571 7.43908C46.5528 7.18461 43.5575 6.80471 40.3965 7.11872C36.3789 7.51793 33.4072 8.89119 31.5641 11.2004C31.4515 11.3438 31.3078 11.4597 31.1438 11.5395C30.9799 11.6192 30.7999 11.6607 30.6176 11.6607C30.4353 11.6607 30.2554 11.6192 30.0914 11.5395C29.9274 11.4597 29.7837 11.3438 29.6712 11.2004C27.8281 8.89122 24.8564 7.51795 20.8388 7.11874C17.6777 6.805 14.6825 7.18463 13.1782 7.4391C12.7779 7.50604 12.4143 7.713 12.1523 8.02307C11.8904 8.33314 11.7471 8.72617 11.748 9.13208L11.747 9.4954C11.1843 9.54852 10.6812 9.60687 10.2525 9.66261C9.64707 9.74179 9.09095 10.038 8.68743 10.4962C8.28391 10.9545 8.06041 11.5436 8.05844 12.1542L8 32.5515C8.00007 32.8951 8.0706 33.2351 8.20723 33.5504C8.34386 33.8656 8.54369 34.1495 8.79438 34.3845C9.04506 34.6195 9.34128 34.8006 9.66472 34.9167C9.98815 35.0327 10.3319 35.0811 10.6748 35.059C19.8097 34.464 24.9163 36.7072 27.5912 38.6928C28.4478 39.335 29.4896 39.6822 30.5602 39.6822C31.6308 39.6822 32.6726 39.335 33.5292 38.6928C36.2054 36.7072 41.312 34.464 50.4455 35.059C50.7884 35.0814 51.1322 35.0332 51.4557 34.9174C51.7792 34.8015 52.0754 34.6206 52.3262 34.3857C52.5769 34.1507 52.7767 33.8669 52.9133 33.5516C53.05 33.2364 53.1204 32.8964 53.1204 32.5528L53.1788 12.1568C53.179 11.5457 52.9555 10.9557 52.5506 10.498ZM13.0761 9.13395C13.0756 9.04179 13.1079 8.95245 13.1672 8.88188C13.2264 8.8113 13.3088 8.76408 13.3997 8.74862C16.0071 8.30768 24.8114 7.24085 28.6333 12.029C28.969 12.452 29.4309 12.7569 29.9518 12.8993L29.898 29.5515C29.8977 29.6388 29.9146 29.7252 29.9477 29.8059C29.9808 29.8865 30.0295 29.9599 30.0909 30.0218C30.1524 30.0836 30.2255 30.1328 30.3059 30.1664C30.3864 30.2001 30.4727 30.2175 30.5599 30.2178H30.5621C30.7378 30.2178 30.9064 30.1482 31.0309 30.0241C31.1554 29.9 31.2256 29.7317 31.2262 29.556L31.28 12.9003C31.8024 12.7583 32.2657 12.4531 32.6022 12.029C36.4241 7.2408 45.2285 8.30783 47.8357 8.74869C47.9263 8.76399 48.0086 8.81092 48.0678 8.88114C48.1271 8.95136 48.1595 9.04032 48.1594 9.13221L48.1037 29.7856C48.1035 29.84 48.092 29.8939 48.0699 29.9436C48.0477 29.9934 48.0154 30.0379 47.9751 30.0745C47.9348 30.1111 47.8873 30.1389 47.8356 30.1561C47.7839 30.1733 47.7292 30.1795 47.675 30.1744C38.2937 29.3379 33.4182 32.2331 31.347 34.034C31.3087 34.0669 31.2683 34.0974 31.2262 34.1253V21.8638C31.2262 21.6876 31.1562 21.5187 31.0317 21.3942C30.9071 21.2697 30.7382 21.1997 30.5621 21.1997C30.386 21.1997 30.2171 21.2697 30.0926 21.3942C29.968 21.5187 29.8981 21.6876 29.8981 21.8638V34.1251C29.8559 34.0972 29.8156 34.0667 29.7772 34.0338C27.958 32.4521 23.9766 30.0259 16.6773 30.0259C15.6664 30.0259 14.5905 30.0725 13.4493 30.1743C13.3952 30.1794 13.3407 30.1732 13.2891 30.1561C13.2376 30.139 13.1901 30.1114 13.1498 30.075C13.1095 30.0386 13.0772 29.9943 13.0549 29.9447C13.0327 29.8952 13.021 29.8416 13.0205 29.7873L13.0761 9.13395ZM51.7923 32.5516C51.7923 32.7136 51.7592 32.8738 51.6948 33.0224C51.6305 33.1711 51.5364 33.3049 51.4182 33.4157C51.3001 33.5265 51.1605 33.6119 51.008 33.6666C50.8556 33.7213 50.6935 33.7441 50.5319 33.7336C40.9959 33.1134 35.5918 35.508 32.7377 37.6277C32.1093 38.0984 31.3453 38.3528 30.5602 38.3528C29.7751 38.3528 29.0111 38.0984 28.3827 37.6277C25.842 35.7404 21.2786 33.634 13.5755 33.634C12.6285 33.634 11.6329 33.6672 10.5885 33.7336C10.4271 33.7438 10.2652 33.7208 10.113 33.6661C9.96077 33.6114 9.82133 33.5261 9.70328 33.4155C9.58522 33.3049 9.49103 33.1714 9.42652 33.023C9.362 32.8747 9.32852 32.7147 9.32812 32.5529L9.38656 12.1569C9.38756 11.8686 9.4931 11.5904 9.6836 11.3741C9.87411 11.1577 10.1366 11.0177 10.4225 10.9802C10.8051 10.9312 11.2499 10.8783 11.7434 10.8292L11.6923 29.7856C11.6925 30.0244 11.7425 30.2605 11.8389 30.479C11.9354 30.6974 12.0763 30.8934 12.2527 31.0544C12.429 31.2155 12.637 31.338 12.8633 31.4143C13.0896 31.4905 13.3293 31.5188 13.5672 31.4974C22.4592 30.7041 26.9937 33.3741 28.9057 35.0362C29.3661 35.4334 29.9539 35.6519 30.562 35.6519C31.17 35.6519 31.7579 35.4334 32.2183 35.0362C34.1302 33.374 38.6653 30.7033 47.5569 31.4974C47.7946 31.5188 48.0341 31.4905 48.2603 31.4144C48.4865 31.3383 48.6944 31.2159 48.8707 31.0551C49.047 30.8942 49.188 30.6985 49.2846 30.4802C49.3812 30.262 49.4313 30.0261 49.4318 29.7874L49.4829 10.8284C49.9815 10.8773 50.4304 10.9301 50.8161 10.9803C51.1014 11.0177 51.3635 11.1573 51.5537 11.3732C51.744 11.5891 51.8495 11.8666 51.8507 12.1544L51.7923 32.5516Z" fill="black"/>
<path d="M52.5506 10.498C52.1481 10.0384 51.5919 9.74138 50.9861 9.66261C50.5562 9.60723 50.0513 9.54925 49.4864 9.49511L49.4874 9.13386C49.4886 8.72766 49.3455 8.33425 49.0835 8.02382C48.8215 7.7134 48.4577 7.50615 48.0571 7.43908C46.5528 7.18461 43.5575 6.80471 40.3965 7.11872C36.3789 7.51793 33.4072 8.89119 31.5641 11.2004C31.4515 11.3438 31.3078 11.4597 31.1438 11.5395C30.9799 11.6192 30.7999 11.6607 30.6176 11.6607C30.4353 11.6607 30.2554 11.6192 30.0914 11.5395C29.9274 11.4597 29.7837 11.3438 29.6712 11.2004C27.8281 8.89122 24.8564 7.51795 20.8388 7.11874C17.6777 6.805 14.6825 7.18463 13.1782 7.4391C12.7779 7.50604 12.4143 7.713 12.1523 8.02307C11.8904 8.33314 11.7471 8.72617 11.748 9.13208L11.747 9.4954C11.1843 9.54852 10.6812 9.60687 10.2525 9.66261C9.64707 9.74179 9.09095 10.038 8.68743 10.4962C8.28391 10.9545 8.06041 11.5436 8.05844 12.1542L8 32.5515C8.00007 32.8951 8.0706 33.2351 8.20723 33.5504C8.34386 33.8656 8.54369 34.1495 8.79438 34.3845C9.04506 34.6195 9.34128 34.8006 9.66472 34.9167C9.98815 35.0327 10.3319 35.0811 10.6748 35.059C19.8097 34.464 24.9163 36.7072 27.5912 38.6928C28.4478 39.335 29.4896 39.6822 30.5602 39.6822C31.6308 39.6822 32.6726 39.335 33.5292 38.6928C36.2054 36.7072 41.312 34.464 50.4455 35.059C50.7884 35.0814 51.1322 35.0332 51.4557 34.9174C51.7792 34.8015 52.0754 34.6206 52.3262 34.3857C52.5769 34.1507 52.7767 33.8669 52.9133 33.5516C53.05 33.2364 53.1204 32.8964 53.1204 32.5528L53.1788 12.1568C53.179 11.5457 52.9555 10.9557 52.5506 10.498ZM13.0761 9.13395C13.0756 9.04179 13.1079 8.95245 13.1672 8.88188C13.2264 8.8113 13.3088 8.76408 13.3997 8.74862C16.0071 8.30768 24.8114 7.24085 28.6333 12.029C28.969 12.452 29.4309 12.7569 29.9518 12.8993L29.898 29.5515C29.8977 29.6388 29.9146 29.7252 29.9477 29.8059C29.9808 29.8865 30.0295 29.9599 30.0909 30.0218C30.1524 30.0836 30.2255 30.1328 30.3059 30.1664C30.3864 30.2001 30.4727 30.2175 30.5599 30.2178H30.5621C30.7378 30.2178 30.9064 30.1482 31.0309 30.0241C31.1554 29.9 31.2256 29.7317 31.2262 29.556L31.28 12.9003C31.8024 12.7583 32.2657 12.4531 32.6022 12.029C36.4241 7.2408 45.2285 8.30783 47.8357 8.74869C47.9263 8.76399 48.0086 8.81092 48.0678 8.88114C48.1271 8.95136 48.1595 9.04032 48.1594 9.13221L48.1037 29.7856C48.1035 29.84 48.092 29.8939 48.0699 29.9436C48.0477 29.9934 48.0154 30.0379 47.9751 30.0745C47.9348 30.1111 47.8873 30.1389 47.8356 30.1561C47.7839 30.1733 47.7292 30.1795 47.675 30.1744C38.2937 29.3379 33.4182 32.2331 31.347 34.034C31.3087 34.0669 31.2683 34.0974 31.2262 34.1253V21.8638C31.2262 21.6876 31.1562 21.5187 31.0317 21.3942C30.9071 21.2697 30.7382 21.1997 30.5621 21.1997C30.386 21.1997 30.2171 21.2697 30.0926 21.3942C29.968 21.5187 29.8981 21.6876 29.8981 21.8638V34.1251C29.8559 34.0972 29.8156 34.0667 29.7772 34.0338C27.958 32.4521 23.9766 30.0259 16.6773 30.0259C15.6664 30.0259 14.5905 30.0725 13.4493 30.1743C13.3952 30.1794 13.3407 30.1732 13.2891 30.1561C13.2376 30.139 13.1901 30.1114 13.1498 30.075C13.1095 30.0386 13.0772 29.9943 13.0549 29.9447C13.0327 29.8952 13.021 29.8416 13.0205 29.7873L13.0761 9.13395ZM51.7923 32.5516C51.7923 32.7136 51.7592 32.8738 51.6948 33.0224C51.6305 33.1711 51.5364 33.3049 51.4182 33.4157C51.3001 33.5265 51.1605 33.6119 51.008 33.6666C50.8556 33.7213 50.6935 33.7441 50.5319 33.7336C40.9959 33.1134 35.5918 35.508 32.7377 37.6277C32.1093 38.0984 31.3453 38.3528 30.5602 38.3528C29.7751 38.3528 29.0111 38.0984 28.3827 37.6277C25.842 35.7404 21.2786 33.634 13.5755 33.634C12.6285 33.634 11.6329 33.6672 10.5885 33.7336C10.4271 33.7438 10.2652 33.7208 10.113 33.6661C9.96077 33.6114 9.82133 33.5261 9.70328 33.4155C9.58522 33.3049 9.49103 33.1714 9.42652 33.023C9.362 32.8747 9.32852 32.7147 9.32812 32.5529L9.38656 12.1569C9.38756 11.8686 9.4931 11.5904 9.6836 11.3741C9.87411 11.1577 10.1366 11.0177 10.4225 10.9802C10.8051 10.9312 11.2499 10.8783 11.7434 10.8292L11.6923 29.7856C11.6925 30.0244 11.7425 30.2605 11.8389 30.479C11.9354 30.6974 12.0763 30.8934 12.2527 31.0544C12.429 31.2155 12.637 31.338 12.8633 31.4143C13.0896 31.4905 13.3293 31.5188 13.5672 31.4974C22.4592 30.7041 26.9937 33.3741 28.9057 35.0362C29.3661 35.4334 29.9539 35.6519 30.562 35.6519C31.17 35.6519 31.7579 35.4334 32.2183 35.0362C34.1302 33.374 38.6653 30.7033 47.5569 31.4974C47.7946 31.5188 48.0341 31.4905 48.2603 31.4144C48.4865 31.3383 48.6944 31.2159 48.8707 31.0551C49.047 30.8942 49.188 30.6985 49.2846 30.4802C49.3812 30.262 49.4313 30.0261 49.4318 29.7874L49.4829 10.8284C49.9815 10.8773 50.4304 10.9301 50.8161 10.9803C51.1014 11.0177 51.3635 11.1573 51.5537 11.3732C51.744 11.5891 51.8495 11.8666 51.8507 12.1544L51.7923 32.5516Z" stroke="black" stroke-width="0.4" mask="url(#path-1-outside-1_370_1220)"/>
<path d="M35.7228 19.5901L35.7865 19.6671C35.7864 19.6672 35.7892 19.6649 35.7953 19.6602C35.8012 19.6556 35.8098 19.6489 35.8212 19.6404C35.8439 19.6234 35.8776 19.5989 35.9221 19.5684C36.0112 19.5075 36.1436 19.4225 36.3187 19.3253C36.6689 19.1307 37.1896 18.8869 37.8753 18.687C39.2459 18.2874 41.2788 18.062 43.9311 18.7591C44.0282 18.7846 44.1293 18.7907 44.2287 18.7771C44.3281 18.7636 44.4239 18.7306 44.5106 18.68C44.5972 18.6294 44.6731 18.5622 44.7338 18.4823C44.7945 18.4024 44.8388 18.3114 44.8643 18.2143C44.8898 18.1173 44.896 18.0161 44.8824 17.9167C44.8688 17.8173 44.8358 17.7215 44.7852 17.6349C44.7346 17.5482 44.6675 17.4724 44.5876 17.4117C44.5077 17.351 44.4166 17.3066 44.3196 17.2811C38.2844 15.6949 34.9635 18.3646 34.8111 18.4908L34.8111 18.4908C34.6901 18.5912 34.603 18.7264 34.5616 18.8781C34.5203 19.0298 34.5268 19.1906 34.5802 19.3384C34.6336 19.4863 34.7313 19.6141 34.86 19.7044C34.9886 19.7947 35.142 19.8431 35.2992 19.843C35.4773 19.8431 35.6498 19.7808 35.7867 19.667L35.7228 19.5901ZM35.7228 19.5901C35.6038 19.689 35.4539 19.7431 35.2992 19.743C35.1626 19.7431 35.0292 19.701 34.9174 19.6225C34.8055 19.5441 34.7206 19.433 34.6742 19.3045C34.6278 19.1759 34.6222 19.0362 34.6581 18.9044C34.694 18.7726 34.7697 18.655 34.8749 18.5678C35.0119 18.4543 38.3003 15.8025 44.2942 17.3778C44.3785 17.4 44.4576 17.4385 44.5271 17.4913C44.5965 17.5441 44.6549 17.61 44.6989 17.6853C44.7428 17.7606 44.7715 17.8438 44.7833 17.9303C44.7951 18.0167 44.7898 18.1045 44.7676 18.1889C44.7455 18.2732 44.7069 18.3524 44.6541 18.4218C44.6014 18.4913 44.5355 18.5496 44.4601 18.5936C44.3848 18.6376 44.3016 18.6663 44.2152 18.6781C44.1288 18.6899 44.0409 18.6845 43.9565 18.6624C38.6154 17.2586 35.7511 19.5666 35.7228 19.5901Z" fill="black" stroke="black" stroke-width="0.2"/>
<path d="M34.8101 22.2563L34.8101 22.2563C34.9625 22.1299 38.2831 19.4603 44.3186 21.0467C44.4156 21.0722 44.5067 21.1166 44.5866 21.1773C44.6665 21.238 44.7336 21.3139 44.7842 21.4005C44.8348 21.4872 44.8678 21.5829 44.8814 21.6824C44.895 21.7818 44.8889 21.8829 44.8633 21.9799C44.8378 22.077 44.7935 22.1681 44.7328 22.248C44.6721 22.3279 44.5962 22.395 44.5096 22.4456C44.4229 22.4962 44.3271 22.5292 44.2277 22.5428C44.1283 22.5564 44.0272 22.5502 43.9301 22.5247L43.9555 22.428L43.9301 22.5247C38.6733 21.1428 35.8835 23.3532 35.7822 23.4353L34.8101 22.2563ZM34.8101 22.2563L34.8096 22.2567M34.8101 22.2563L34.8096 22.2567M34.8096 22.2567C34.6552 22.3863 34.5583 22.5716 34.5399 22.7723M34.8096 22.2567L34.5399 22.7723M34.5399 22.7723C34.5215 22.973 34.5832 23.1728 34.7114 23.3283M34.5399 22.7723L34.7114 23.3283M34.7114 23.3283C34.8397 23.4837 35.0242 23.5822 35.2248 23.6023M34.7114 23.3283L35.2248 23.6023M35.2248 23.6023C35.4253 23.6223 35.6256 23.5623 35.7822 23.4354L35.2248 23.6023Z" fill="black" stroke="black" stroke-width="0.2"/>
<path d="M34.8101 26.0218L34.8101 26.0218C34.9625 25.8954 38.2831 23.2259 44.3186 24.8122C44.4156 24.8377 44.5067 24.8821 44.5866 24.9428C44.6665 25.0035 44.7336 25.0793 44.7842 25.166C44.8348 25.2526 44.8678 25.3484 44.8814 25.4478C44.895 25.5472 44.8889 25.6484 44.8633 25.7454C44.8378 25.8424 44.7935 25.9335 44.7328 26.0134C44.6721 26.0933 44.5962 26.1605 44.5096 26.2111C44.4229 26.2616 44.3271 26.2947 44.2277 26.3082C44.1283 26.3218 44.0272 26.3157 43.9301 26.2902L43.9555 26.1935L43.9301 26.2902C38.6733 24.9082 35.8835 27.1187 35.7822 27.2008L34.8101 26.0218ZM34.8101 26.0218L34.8096 26.0222M34.8101 26.0218L34.8096 26.0222M34.8096 26.0222C34.6552 26.1517 34.5583 26.337 34.5399 26.5377M34.8096 26.0222L34.5399 26.5377M34.5399 26.5377C34.5215 26.7384 34.5832 26.9383 34.7114 27.0937M34.5399 26.5377L34.7114 27.0937M34.7114 27.0937C34.8397 27.2492 35.0242 27.3477 35.2248 27.3677M34.7114 27.0937L35.2248 27.3677M35.2248 27.3677C35.4253 27.3878 35.6256 27.3278 35.7822 27.2008L35.2248 27.3677Z" fill="black" stroke="black" stroke-width="0.2"/>
<path d="M16.1204 18.2145L16.1204 18.2144C16.0689 18.0184 16.0974 17.81 16.1995 17.635C16.3017 17.46 16.4692 17.3327 16.6652 17.2812L16.6652 17.2812C22.7005 15.6951 26.0212 18.3645 26.1737 18.4909M16.1204 18.2145L26.1098 18.5679M16.1204 18.2145C16.1721 18.4104 16.2994 18.5777 16.4743 18.6798C16.6493 18.7819 16.8576 18.8105 17.0535 18.7592L17.0536 18.7591C22.3001 17.3804 25.0894 19.579 25.2008 19.6694M16.1204 18.2145L17.0282 18.6624M26.1737 18.4909L26.1098 18.5679M26.1737 18.4909C26.1736 18.4909 26.1736 18.4908 26.1735 18.4908L26.1098 18.5679M26.1737 18.4909C26.251 18.5548 26.3149 18.6332 26.3619 18.7218C26.409 18.8104 26.4381 18.9075 26.4476 19.0074C26.4571 19.1072 26.4469 19.208 26.4175 19.304C26.3881 19.3999 26.34 19.4891 26.2761 19.5665C26.2123 19.6438 26.1337 19.7079 26.0451 19.7549C25.9565 19.8019 25.8594 19.831 25.7596 19.8406C25.6597 19.8501 25.5589 19.8398 25.463 19.8104C25.3672 19.7811 25.2781 19.7331 25.2008 19.6694M26.1098 18.5679C26.1771 18.6234 26.2327 18.6916 26.2736 18.7687C26.3145 18.8457 26.3398 18.93 26.3481 19.0169C26.3563 19.1037 26.3475 19.1913 26.3219 19.2746C26.2963 19.358 26.2546 19.4355 26.199 19.5028C26.1435 19.57 26.0753 19.6257 25.9982 19.6666C25.9212 19.7074 25.8369 19.7327 25.7501 19.741C25.6632 19.7493 25.5756 19.7404 25.4923 19.7148C25.4089 19.6893 25.3314 19.6475 25.2641 19.592M25.2008 19.6694C25.2009 19.6695 25.201 19.6695 25.2011 19.6696L25.2641 19.592M25.2008 19.6694C25.2007 19.6693 25.2006 19.6692 25.2005 19.6691L25.2641 19.592M25.2641 19.592C25.1405 19.4916 22.3188 17.272 17.0282 18.6624M17.0282 18.6624C16.8579 18.707 16.6768 18.6822 16.5248 18.5935C16.3727 18.5047 16.2621 18.3593 16.2171 18.189L17.0282 18.6624Z" fill="black" stroke="black" stroke-width="0.2"/>
<path d="M17.0536 22.5247L17.0536 22.5247C16.9566 22.5502 16.8555 22.5563 16.756 22.5428C16.6566 22.5292 16.5608 22.4962 16.4742 22.4456C16.3875 22.395 16.3117 22.3278 16.251 22.2479C16.1903 22.168 16.1459 22.077 16.1204 21.9799C16.0949 21.8829 16.0888 21.7818 16.1023 21.6823C16.1159 21.5829 16.1489 21.4872 16.1995 21.4005C16.2501 21.3138 16.3173 21.238 16.3972 21.1773C16.4771 21.1166 16.5681 21.0722 16.6652 21.0467C22.6983 19.4605 26.0191 22.1282 26.1735 22.2562L17.0536 22.5247ZM17.0536 22.5247C22.2992 21.1456 25.0882 23.3436 25.2008 23.4348M17.0536 22.5247L25.2008 23.4348M25.2008 23.4348C25.357 23.5636 25.558 23.6252 25.7596 23.606C25.8595 23.5965 25.9565 23.5673 26.0451 23.5203C26.1338 23.4733 26.2123 23.4093 26.2762 23.3319C26.34 23.2545 26.3881 23.1653 26.4175 23.0694C26.4469 22.9735 26.4571 22.8727 26.4476 22.7728C26.4381 22.6729 26.409 22.5759 26.3619 22.4872C26.3149 22.3986 26.251 22.3202 26.1737 22.2563L25.2008 23.4348Z" fill="black" stroke="black" stroke-width="0.2"/>
<path d="M17.0536 26.2901L17.0536 26.2901C16.8576 26.3417 16.6492 26.3132 16.4742 26.211C16.2992 26.1089 16.1719 25.9414 16.1204 25.7454C16.0689 25.5494 16.0974 25.341 16.1995 25.1659C16.3017 24.9909 16.4692 24.8637 16.6652 24.8122C22.7002 23.2254 26.0212 25.8954 26.1737 26.0218M17.0536 26.2901L26.1098 26.0987M17.0536 26.2901C22.3002 24.9108 25.0893 27.1099 25.2008 27.2003M17.0536 26.2901L25.2641 27.1228M26.1737 26.0218L26.1098 26.0987M26.1737 26.0218C26.1736 26.0217 26.1736 26.0217 26.1735 26.0216L26.1098 26.0987M26.1737 26.0218C26.3298 26.1508 26.4284 26.3366 26.4476 26.5382C26.4669 26.74 26.4052 26.9411 26.2761 27.0973C26.1471 27.2536 25.9613 27.3522 25.7596 27.3714C25.558 27.3907 25.357 27.3291 25.2008 27.2003M26.1098 26.0987C26.2457 26.2109 26.3313 26.3724 26.3481 26.5477C26.3648 26.7231 26.3112 26.8978 26.199 27.0337C26.0869 27.1695 25.9254 27.2551 25.7501 27.2719C25.5747 27.2886 25.3999 27.235 25.2641 27.1228M25.2008 27.2003C25.2009 27.2004 25.201 27.2004 25.2011 27.2005L25.2641 27.1228M25.2008 27.2003C25.2007 27.2002 25.2006 27.2001 25.2005 27.2L25.2641 27.1228" fill="black" stroke="black" stroke-width="0.2"/>
<path d="M2 50H58" stroke="black" stroke-width="2"/>
<circle cx="7" cy="50" r="4" fill="white" stroke="black" stroke-width="2"/>
<circle cx="30" cy="50" r="5" fill="#E72C12"/>
<circle cx="53" cy="50" r="4" fill="white" stroke="black" stroke-width="2"/>
</svg>
