<svg width="78" height="60" viewBox="0 0 78 60" fill="none" xmlns="http://www.w3.org/2000/svg">
<path d="M51.9065 8.37361L51.9064 8.37297C51.7963 7.99249 51.5658 7.65793 51.2496 7.41942C50.9334 7.18091 50.5484 7.0513 50.1523 7.05H50.1516L35.5362 7.05L35.5355 7.05C35.1394 7.0513 34.7544 7.18091 34.4382 7.41942C34.122 7.65793 33.8915 7.99249 33.7814 8.37297L33.7813 8.37361L32.2335 13.7903L32.4258 13.8452L32.2335 13.7903C32.1559 14.0619 32.1424 14.3478 32.1941 14.6255C32.2458 14.9033 32.3612 15.1652 32.5313 15.3907C32.7015 15.6162 32.9216 15.7992 33.1745 15.9252C33.424 16.0495 33.6986 16.1149 33.9772 16.1166L33.9772 24.0417L33.9772 24.0419C33.9782 24.8129 34.2848 25.552 34.83 26.0972C35.3752 26.6424 36.1143 26.9491 36.8853 26.95H36.8856H48.8022H48.8025C49.5735 26.9491 50.3126 26.6424 50.8578 26.0972C51.403 25.552 51.7096 24.8129 51.7106 24.0419V24.0417V16.1166C51.9892 16.1149 52.2638 16.0495 52.5134 15.9252C52.7662 15.7992 52.9863 15.6162 53.1565 15.3907C53.3266 15.1652 53.442 14.9033 53.4937 14.6255C53.5454 14.3478 53.5319 14.0619 53.4543 13.7903L53.262 13.8452L53.4543 13.7903L51.9065 8.37361ZM51.9726 14.4973L51.9721 14.4981C51.9404 14.5402 51.8994 14.5744 51.8522 14.5979C51.8049 14.6214 51.7529 14.6335 51.7002 14.6333H51.6994H33.9884H33.9883C33.9354 14.6334 33.8833 14.6211 33.836 14.5975C33.7887 14.5739 33.7475 14.5397 33.7158 14.4974C33.684 14.4552 33.6624 14.4062 33.6529 14.3542C33.6433 14.3022 33.6459 14.2487 33.6606 14.1979L33.6607 14.1974L35.2083 8.78122C35.2084 8.78115 35.2084 8.78108 35.2084 8.78101C35.229 8.70981 35.2721 8.64719 35.3312 8.60253C35.3904 8.55789 35.4624 8.53362 35.5365 8.53333H50.1513C50.2254 8.53362 50.2974 8.55789 50.3566 8.60253L50.4771 8.4429L50.3566 8.60253C50.4158 8.64723 50.4589 8.70992 50.4795 8.7812C50.4795 8.78121 50.4795 8.78121 50.4795 8.78122L52.0271 14.1974L52.0275 14.1987C52.0423 14.2493 52.045 14.3027 52.0355 14.3545C52.026 14.4064 52.0045 14.4553 51.9726 14.4973ZM50.2272 24.0414C50.2268 24.4193 50.0765 24.7816 49.8093 25.0488C49.5421 25.3159 49.1799 25.4662 48.802 25.4667H36.8858C36.5079 25.4662 36.1457 25.3159 35.8785 25.0488C35.6113 24.7816 35.4611 24.4194 35.4606 24.0417C35.4606 24.0416 35.4606 24.0415 35.4606 24.0414L35.4606 16.1167H50.2272V24.0414Z" fill="black" stroke="black" stroke-width="0.4"/>
<path d="M25.9065 34.3736L25.9064 34.373C25.7963 33.9925 25.5658 33.6579 25.2496 33.4194C24.9334 33.1809 24.5484 33.0513 24.1523 33.05H24.1516L9.53617 33.05L9.53551 33.05C9.13943 33.0513 8.75443 33.1809 8.4382 33.4194C8.12197 33.6579 7.89154 33.9925 7.78145 34.373L7.78127 34.3736L6.23351 39.7903L6.42581 39.8452L6.23351 39.7903C6.1559 40.0619 6.1424 40.3478 6.19408 40.6255C6.24576 40.9033 6.36121 41.1652 6.53133 41.3907C6.70145 41.6162 6.9216 41.7992 7.17445 41.9252C7.42396 42.0495 7.69858 42.1149 7.97724 42.1166L7.97724 50.0417L7.97724 50.0419C7.97816 50.8129 8.28484 51.552 8.83002 52.0972C9.37519 52.6424 10.1143 52.9491 10.8853 52.95H10.8856H22.8022H22.8025C23.5735 52.9491 24.3126 52.6424 24.8578 52.0972C25.403 51.552 25.7096 50.8129 25.7106 50.0419V50.0417V42.1166C25.9892 42.1149 26.2638 42.0495 26.5134 41.9252C26.7662 41.7992 26.9863 41.6162 27.1565 41.3907C27.3266 41.1652 27.442 40.9033 27.4937 40.6255C27.5454 40.3478 27.5319 40.0619 27.4543 39.7903L27.262 39.8452L27.4543 39.7903L25.9065 34.3736ZM25.9726 40.4973L25.9721 40.4981C25.9404 40.5402 25.8994 40.5744 25.8522 40.5979C25.8049 40.6214 25.7529 40.6335 25.7002 40.6333H25.6994H7.98841H7.9883C7.93545 40.6334 7.88331 40.6211 7.83601 40.5975C7.78871 40.5739 7.74754 40.5397 7.71575 40.4974C7.68396 40.4552 7.66243 40.4062 7.65286 40.3542C7.64328 40.3022 7.64592 40.2487 7.66057 40.1979L7.66071 40.1974L9.20834 34.7812C9.20836 34.7812 9.20838 34.7811 9.2084 34.781C9.22898 34.7098 9.27207 34.6472 9.33123 34.6025C9.39038 34.5579 9.46239 34.5336 9.53648 34.5333H24.1513C24.2254 34.5336 24.2974 34.5579 24.3566 34.6025L24.4771 34.4429L24.3566 34.6025C24.4158 34.6472 24.4589 34.7099 24.4795 34.7812C24.4795 34.7812 24.4795 34.7812 24.4795 34.7812L26.0271 40.1974L26.0275 40.1987C26.0423 40.2493 26.045 40.3027 26.0355 40.3545C26.026 40.4064 26.0045 40.4553 25.9726 40.4973ZM24.2272 50.0414C24.2268 50.4193 24.0765 50.7816 23.8093 51.0488C23.5421 51.3159 23.1799 51.4662 22.802 51.4667H10.8858C10.5079 51.4662 10.1457 51.3159 9.87848 51.0488C9.61134 50.7816 9.46106 50.4194 9.46057 50.0417C9.46057 50.0416 9.46057 50.0415 9.46057 50.0414L9.46057 42.1167H24.2272V50.0414Z" fill="black" stroke="black" stroke-width="0.4"/>
<path d="M15 25.5V14H28" stroke="black" stroke-width="2"/>
<path d="M47 35L47 46.5L34 46.5" stroke="black" stroke-width="2"/>
<circle cx="16" cy="14" r="4" fill="white" stroke="black" stroke-width="2"/>
<circle cx="47" cy="46" r="5" fill="#E72C12"/>
</svg>
